<svg id="visual" viewBox="0 0 2000 466" width="2000" height="466" xmlns="http://www.w3.org/2000/svg" xmlns:xlink="http://www.w3.org/1999/xlink" version="1.1"><rect x="0" y="0" width="2000" height="466" fill="#ffffff"></rect><defs><linearGradient id="grad1_0" x1="76.7%" y1="0%" x2="100%" y2="100%"><stop offset="-35.83690987124462%" stop-color="#6100f3" stop-opacity="1"></stop><stop offset="135.83690987124464%" stop-color="#6100f3" stop-opacity="1"></stop></linearGradient></defs><defs><linearGradient id="grad1_1" x1="76.7%" y1="0%" x2="100%" y2="100%"><stop offset="-35.83690987124462%" stop-color="#6100f3" stop-opacity="1"></stop><stop offset="135.83690987124464%" stop-color="#ffffff" stop-opacity="1"></stop></linearGradient></defs><defs><linearGradient id="grad2_0" x1="0%" y1="0%" x2="23.3%" y2="100%"><stop offset="-35.83690987124462%" stop-color="#6100f3" stop-opacity="1"></stop><stop offset="135.83690987124464%" stop-color="#6100f3" stop-opacity="1"></stop></linearGradient></defs><defs><linearGradient id="grad2_1" x1="0%" y1="0%" x2="23.3%" y2="100%"><stop offset="-35.83690987124462%" stop-color="#ffffff" stop-opacity="1"></stop><stop offset="135.83690987124464%" stop-color="#6100f3" stop-opacity="1"></stop></linearGradient></defs><g transform="translate(2000, 0)"><path d="M0 466C-93.9 460.9 -187.7 455.9 -233 403.6C-278.3 351.2 -275 251.6 -305.7 176.5C-336.4 101.4 -401.2 50.7 -466 0L0 0Z" fill="#c08ffc"></path><path d="M0 233C-46.9 230.5 -93.9 227.9 -116.5 201.8C-139.1 175.6 -137.5 125.8 -152.9 88.3C-168.2 50.7 -200.6 25.3 -233 0L0 0Z" fill="#6100f3"></path></g><g transform="translate(0, 466)"><path d="M0 -466C86.5 -456.7 172.9 -447.4 233 -403.6C293.1 -359.8 326.7 -281.5 361.1 -208.5C395.6 -135.5 430.8 -67.7 466 0L0 0Z" fill="#c08ffc"></path><path d="M0 -233C43.2 -228.3 86.5 -223.7 116.5 -201.8C146.5 -179.9 163.4 -140.8 180.6 -104.3C197.8 -67.7 215.4 -33.9 233 0L0 0Z" fill="#6100f3"></path></g></svg>