<?xml version="1.0" standalone="no"?>
<svg xmlns:xlink="http://www.w3.org/1999/xlink" id="wave" style="transform:rotate(180deg); transition: 0.3s" viewBox="0 0 1440 490" version="1.1" xmlns="http://www.w3.org/2000/svg"><defs><linearGradient id="sw-gradient-0" x1="0" x2="0" y1="1" y2="0"><stop stop-color="rgba(182, 151, 245, 1)" offset="0%"/><stop stop-color="rgba(114, 140, 247, 1)" offset="100%"/></linearGradient></defs><path style="transform:translate(0, 0px); opacity:1" fill="url(#sw-gradient-0)" d="M0,98L80,147C160,196,320,294,480,310.3C640,327,800,261,960,220.5C1120,180,1280,163,1440,163.3C1600,163,1760,180,1920,179.7C2080,180,2240,163,2400,147C2560,131,2720,114,2880,138.8C3040,163,3200,229,3360,236.8C3520,245,3680,196,3840,171.5C4000,147,4160,147,4320,163.3C4480,180,4640,212,4800,204.2C4960,196,5120,147,5280,122.5C5440,98,5600,98,5760,155.2C5920,212,6080,327,6240,351.2C6400,376,6560,310,6720,269.5C6880,229,7040,212,7200,179.7C7360,147,7520,98,7680,81.7C7840,65,8000,82,8160,81.7C8320,82,8480,65,8640,57.2C8800,49,8960,49,9120,49C9280,49,9440,49,9600,49C9760,49,9920,49,10080,114.3C10240,180,10400,310,10560,343C10720,376,10880,310,11040,261.3C11200,212,11360,180,11440,163.3L11520,147L11520,490L11440,490C11360,490,11200,490,11040,490C10880,490,10720,490,10560,490C10400,490,10240,490,10080,490C9920,490,9760,490,9600,490C9440,490,9280,490,9120,490C8960,490,8800,490,8640,490C8480,490,8320,490,8160,490C8000,490,7840,490,7680,490C7520,490,7360,490,7200,490C7040,490,6880,490,6720,490C6560,490,6400,490,6240,490C6080,490,5920,490,5760,490C5600,490,5440,490,5280,490C5120,490,4960,490,4800,490C4640,490,4480,490,4320,490C4160,490,4000,490,3840,490C3680,490,3520,490,3360,490C3200,490,3040,490,2880,490C2720,490,2560,490,2400,490C2240,490,2080,490,1920,490C1760,490,1600,490,1440,490C1280,490,1120,490,960,490C800,490,640,490,480,490C320,490,160,490,80,490L0,490Z"/></svg>